<?xml version="1.0" encoding="utf-8"?>
<!-- Generator: Adobe Illustrator 24.0.2, SVG Export Plug-In . SVG Version: 6.00 Build 0)  -->
<svg version="1.1" id="Capa_1" xmlns="http://www.w3.org/2000/svg" xmlns:xlink="http://www.w3.org/1999/xlink" x="0px" y="0px"
	 viewBox="0 0 20 20" style="enable-background:new 0 0 20 20;" xml:space="preserve">
<style type="text/css">
	.st0{fill:#020203;}
</style>
<path class="st0" d="M10,0C4.48,0,0,4.48,0,10s4.48,10,10,10s10-4.48,10-10S15.52,0,10,0z M5.53,5.5h8.94
	c0.12,0,0.24,0.02,0.36,0.05c-0.02,0.01-0.03,0.03-0.05,0.04l-3.99,4.53c-0.2,0.23-0.48,0.35-0.78,0.35c-0.3,0-0.58-0.13-0.78-0.35
	L5.18,5.54C5.29,5.52,5.41,5.5,5.53,5.5z M15.85,12.07c0,1.34-1.09,2.43-2.43,2.43H6.58c-1.34,0-2.43-1.09-2.43-2.43V6.88
	c0-0.19,0.04-0.38,0.11-0.54l4.04,4.59c0.43,0.49,1.05,0.76,1.69,0.76c0.65,0,1.27-0.28,1.69-0.76l3.99-4.53
	c0.02-0.02,0.03-0.04,0.05-0.06c0.07,0.17,0.11,0.35,0.11,0.55V12.07z"/>
</svg>
