<?xml version="1.0" encoding="utf-8"?>
<!-- Generator: Adobe Illustrator 24.0.2, SVG Export Plug-In . SVG Version: 6.00 Build 0)  -->
<svg version="1.1" id="Capa_1" xmlns="http://www.w3.org/2000/svg" xmlns:xlink="http://www.w3.org/1999/xlink" x="0px" y="0px"
	 viewBox="0 0 20 20" style="enable-background:new 0 0 20 20;" xml:space="preserve">
<style type="text/css">
	.st0{fill:#EF2669;}
</style>
<path class="st0" d="M10,0C4.5,0,0,4.5,0,10s4.5,10,10,10s10-4.5,10-10S15.5,0,10,0z M5.5,5.5h8.9c0.1,0,0.2,0,0.4,0.1
	c0,0,0,0-0.1,0l-4,4.5c-0.2,0.2-0.5,0.4-0.8,0.4s-0.6-0.1-0.8-0.4l-4-4.6C5.3,5.5,5.4,5.5,5.5,5.5z M15.9,12.1
	c0,1.3-1.1,2.4-2.4,2.4H6.6c-1.3,0-2.4-1.1-2.4-2.4V6.9c0-0.2,0-0.4,0.1-0.5l4,4.6c0.4,0.5,1.1,0.8,1.7,0.8c0.6,0,1.3-0.3,1.7-0.8
	l4-4.5c0,0,0,0,0.1-0.1c0.1,0.2,0.1,0.3,0.1,0.6L15.9,12.1L15.9,12.1z"/>
</svg>
