<?xml version="1.0" encoding="utf-8"?>
<!-- Generator: Adobe Illustrator 24.0.2, SVG Export Plug-In . SVG Version: 6.00 Build 0)  -->
<svg version="1.1" id="Capa_1" xmlns="http://www.w3.org/2000/svg" xmlns:xlink="http://www.w3.org/1999/xlink" x="0px" y="0px"
	 viewBox="0 0 20 20" style="enable-background:new 0 0 20 20;" xml:space="preserve">
<style type="text/css">
	.st0{fill:#EF2669;}
</style>
<g>
	<g>
		<path class="st0" d="M10.1,8.1C9,8.1,8.1,8.9,8.1,10s0.9,1.9,1.9,1.9S12,11.1,12,10S11.1,8.1,10.1,8.1z"/>
		<path class="st0" d="M12.4,5.1H7.6c-1.4,0-2.5,1.1-2.5,2.5v4.8c0,1.4,1.1,2.5,2.5,2.5h4.8c1.4,0,2.5-1.1,2.5-2.5V7.6
			C14.9,6.2,13.8,5.1,12.4,5.1z M10.1,13c-1.6,0-3-1.3-3-3s1.3-3,3-3s3,1.3,3,3S11.7,13,10.1,13z M13.2,7.5c-0.4,0-0.7-0.3-0.7-0.7
			s0.3-0.7,0.7-0.7s0.7,0.3,0.7,0.7C13.9,7.2,13.6,7.5,13.2,7.5z"/>
		<path class="st0" d="M10,0C4.5,0,0,4.5,0,10s4.5,10,10,10s10-4.5,10-10S15.5,0,10,0z M16.1,12.4c0,2-1.6,3.6-3.6,3.6H7.6
			c-2,0-3.6-1.6-3.6-3.6V7.6c0-2,1.6-3.6,3.6-3.6h4.8c2,0,3.6,1.6,3.6,3.6V12.4z"/>
	</g>
</g>
</svg>
