<?xml version="1.0" encoding="utf-8"?>
<!-- Generator: Adobe Illustrator 24.0.2, SVG Export Plug-In . SVG Version: 6.00 Build 0)  -->
<svg version="1.1" id="Capa_1" xmlns="http://www.w3.org/2000/svg" xmlns:xlink="http://www.w3.org/1999/xlink" x="0px" y="0px"
	 viewBox="0 0 20 20" style="enable-background:new 0 0 20 20;" xml:space="preserve">
<style type="text/css">
	.st0{fill:#020203;}
</style>
<g>
	<path class="st0" d="M10.05,8.09C9,8.09,8.14,8.95,8.14,10s0.86,1.91,1.91,1.91c1.05,0,1.91-0.86,1.91-1.91S11.1,8.09,10.05,8.09z"
		/>
	<path class="st0" d="M12.42,5.08H7.58c-1.38,0-2.5,1.12-2.5,2.5v4.84c0,1.38,1.12,2.5,2.5,2.5h4.84c1.38,0,2.5-1.12,2.5-2.5V7.58
		C14.92,6.2,13.8,5.08,12.42,5.08z M10.05,12.99c-1.65,0-2.99-1.34-2.99-2.99c0-1.65,1.34-2.99,2.99-2.99
		c1.65,0,2.99,1.34,2.99,2.99C13.04,11.65,11.7,12.99,10.05,12.99z M13.21,7.52c-0.39,0-0.71-0.32-0.71-0.71
		c0-0.39,0.32-0.71,0.71-0.71c0.39,0,0.71,0.32,0.71,0.71C13.92,7.21,13.6,7.52,13.21,7.52z"/>
	<path class="st0" d="M10,0C4.48,0,0,4.48,0,10s4.48,10,10,10c5.52,0,10-4.48,10-10S15.52,0,10,0z M16.06,12.42
		c0,2.01-1.63,3.64-3.64,3.64H7.58c-2.01,0-3.64-1.63-3.64-3.64V7.58c0-2.01,1.63-3.64,3.64-3.64h4.84c2.01,0,3.64,1.63,3.64,3.64
		V12.42z"/>
</g>
</svg>
