<?xml version="1.0" encoding="utf-8"?>
<!-- Generator: Adobe Illustrator 24.0.2, SVG Export Plug-In . SVG Version: 6.00 Build 0)  -->
<svg version="1.1" id="Capa_1" xmlns="http://www.w3.org/2000/svg" xmlns:xlink="http://www.w3.org/1999/xlink" x="0px" y="0px"
	 viewBox="0 0 20 20" style="enable-background:new 0 0 20 20;" xml:space="preserve">
<style type="text/css">
	.st0{fill:#020203;}
</style>
<g>
	<polygon class="st0" points="10.1,9.1 7.4,5.3 6,5.3 9.3,10.1 9.7,10.7 9.7,10.7 12.6,14.7 14,14.7 10.5,9.7 	"/>
	<path class="st0" d="M10,0C4.5,0,0,4.5,0,10s4.5,10,10,10s10-4.5,10-10S15.5,0,10,0z M12.1,15.4l-2.9-4.2l-3.6,4.2H4.7l4.1-4.8
		l-4.1-6h3.1l2.7,4l3.4-4h0.9L11,9.2l0,0l4.3,6.2L12.1,15.4L12.1,15.4z"/>
</g>
</svg>
