<?xml version="1.0" encoding="utf-8"?>
<!-- Generator: Adobe Illustrator 24.0.2, SVG Export Plug-In . SVG Version: 6.00 Build 0)  -->
<svg version="1.1" id="Capa_1" xmlns="http://www.w3.org/2000/svg" xmlns:xlink="http://www.w3.org/1999/xlink" x="0px" y="0px"
	 viewBox="0 0 20 20" style="enable-background:new 0 0 20 20;" xml:space="preserve">
<style type="text/css">
	.st0{fill:#EF2669;}
</style>
<g>
	<path class="st0" d="M12.3,9.9L9.1,8.2C9,8.1,8.6,8.2,8.6,8.4v3.3c0,0.1,0.4,0.2,0.6,0.2l3.3-1.6C12.5,10.2,12.4,10,12.3,9.9z"/>
	<path class="st0" d="M10,0C4.5,0,0,4.5,0,10s4.5,10,10,10s10-4.5,10-10S15.5,0,10,0z M16.7,11.7c0,1.6-1.3,2.9-2.9,2.9H6.5
		c-1.6,0-2.9-1.3-2.9-2.9V8.3c0-1.6,1.3-2.9,2.9-2.9h7.3c1.6,0,2.9,1.3,2.9,2.9L16.7,11.7L16.7,11.7z"/>
</g>
</svg>
