<?xml version="1.0" encoding="utf-8"?>
<!-- Generator: Adobe Illustrator 24.0.2, SVG Export Plug-In . SVG Version: 6.00 Build 0)  -->
<svg version="1.1" id="Capa_1" xmlns="http://www.w3.org/2000/svg" xmlns:xlink="http://www.w3.org/1999/xlink" x="0px" y="0px"
	 viewBox="0 0 20 20" style="enable-background:new 0 0 20 20;" xml:space="preserve">
<style type="text/css">
	.st0{fill:#020203;}
</style>
<g>
	<path class="st0" d="M12.27,9.92L9.12,8.2C8.99,8.13,8.55,8.22,8.55,8.37v3.34c0,0.15,0.44,0.24,0.57,0.17l3.29-1.63
		C12.54,10.18,12.4,9.99,12.27,9.92z"/>
	<path class="st0" d="M10,0C4.48,0,0,4.48,0,10s4.48,10,10,10c5.52,0,10-4.48,10-10S15.52,0,10,0z M16.72,11.71
		c0,1.58-1.28,2.87-2.87,2.87H6.52c-1.58,0-2.87-1.28-2.87-2.87V8.29c0-1.58,1.28-2.87,2.87-2.87h7.34c1.58,0,2.87,1.28,2.87,2.87
		V11.71z"/>
</g>
</svg>
